<?xml version="1.0" standalone="no"?>
<!DOCTYPE svg PUBLIC "-//W3C//DTD SVG 20010904//EN"
 "http://www.w3.org/TR/2001/REC-SVG-20010904/DTD/svg10.dtd">
<svg version="1.0" xmlns="http://www.w3.org/2000/svg"
 width="512.000000pt" height="512.000000pt" viewBox="0 0 512.000000 512.000000"
 preserveAspectRatio="xMidYMid meet">

<g transform="translate(0.000000,512.000000) scale(0.100000,-0.100000)"
fill="#000000" stroke="none">
<path d="M3560 4069 c-298 -100 -319 -111 -339 -185 -13 -48 -7 -72 53 -214
24 -58 43 -106 42 -108 -5 -5 -1309 -342 -1312 -339 -2 1 -32 70 -67 152 l-64
150 121 6 c84 4 131 11 153 22 103 54 105 209 3 262 -24 12 -91 15 -397 15
-344 0 -370 -1 -397 -19 -44 -29 -66 -70 -66 -124 0 -98 55 -146 178 -154 l78
-6 98 -229 c88 -205 97 -231 84 -246 -174 -204 -273 -317 -277 -317 -3 0 -30
13 -59 28 -29 15 -92 41 -140 57 -452 150 -942 -56 -1152 -485 -292 -594 96
-1292 757 -1365 466 -51 908 262 1022 723 l17 72 280 5 c235 4 284 8 304 21
14 9 245 318 514 688 270 369 493 668 497 664 10 -11 169 -396 169 -409 0 -6
-25 -28 -55 -49 -76 -52 -202 -188 -251 -271 -136 -231 -174 -488 -109 -738
118 -452 560 -757 1022 -705 658 73 1043 772 753 1364 -93 192 -243 341 -435
435 -159 78 -239 95 -425 93 -85 -2 -170 -4 -188 -5 l-33 -3 -180 430 c-98
237 -182 439 -185 450 -4 18 10 25 143 69 189 61 228 80 253 120 42 68 18 176
-47 209 -64 33 -77 31 -363 -64z m-765 -1355 c-197 -269 -358 -490 -360 -492
-1 -1 -71 157 -155 353 -84 196 -149 359 -146 363 8 7 1009 271 1014 267 2 -2
-157 -223 -353 -491z m-766 -314 l140 -325 -436 -3 c-240 -1 -438 0 -440 2 -3
2 127 158 288 346 241 280 295 338 301 323 5 -10 71 -164 147 -343z m-936 154
c87 -20 160 -50 152 -63 -3 -6 -96 -115 -206 -243 -111 -128 -210 -252 -221
-276 -22 -48 -18 -87 13 -138 38 -62 51 -64 424 -64 l336 0 -6 -22 c-69 -229
-250 -406 -475 -464 -78 -20 -224 -22 -300 -4 -124 29 -278 122 -352 212 -130
159 -184 368 -144 558 39 188 176 364 346 449 141 69 288 88 433 55z m3212 1
c183 -38 360 -176 444 -345 54 -111 75 -208 68 -325 -14 -246 -157 -458 -379
-559 -98 -45 -165 -59 -273 -59 -173 0 -319 59 -444 178 -138 132 -203 280
-204 465 0 126 18 203 75 313 39 74 160 217 185 217 5 0 65 -133 133 -295 67
-163 132 -307 142 -321 61 -77 188 -70 240 14 40 65 32 98 -105 422 -104 248
-121 296 -108 302 28 12 154 8 226 -7z"/>
</g>
</svg>
